<?xml version="1.0" encoding="UTF-8" standalone="no"?>
<!-- Created with Inkscape (http://www.inkscape.org/) -->

<svg
   width="601.85358"
   height="173.8613"
   viewBox="0 0 159.24042 46.000801"
   version="1.1"
   id="svg1"
   xml:space="preserve"
   xmlns="http://www.w3.org/2000/svg"
   xmlns:svg="http://www.w3.org/2000/svg"><defs
     id="defs1" /><g
     id="layer1"
     transform="translate(-44.592538,138.3383)"><g
       id="g8"><path
         id="text1-8-9-7-6-6"
         style="font-size:35.2778px;writing-mode:lr-tb;direction:ltr;fill:#b3b3b3;stroke-width:0.661458"
         d="m 161.88875,-125.16961 v 25.97619 h 4.70255 v -25.97619 z m -12.19564,6.75256 c -1.1254,0 -2.18172,0.21227 -3.16932,0.63717 -0.98759,0.42489 -1.90663,1.06223 -2.75642,1.91202 v -2.06705 h -4.66793 v 25.5974 h 4.66793 v -8.83667 c 0.9187,0.87276 1.8433,1.50402 2.77348,1.89446 0.93017,0.37896 1.93482,0.56844 3.01428,0.56844 2.42306,0 4.51899,-0.93574 6.28747,-2.80758 1.76849,-1.88332 2.65256,-4.22041 2.65256,-7.01094 0,-2.89388 -0.85519,-5.26491 -2.56626,-7.11378 -1.71106,-1.84887 -3.78977,-2.77347 -6.23579,-2.77347 z m 47.62862,0 c -1.77997,0 -3.24413,0.52842 -4.3925,1.58491 -1.13688,1.04502 -1.70532,2.30804 -1.70532,3.78944 0,2.29673 1.51584,4.20875 4.54752,5.73608 l 1.5844,0.7922 c 1.36656,0.68902 2.05001,1.39526 2.05001,2.11873 0,0.39045 -0.18948,0.73496 -0.56844,1.03353 -0.37896,0.29858 -0.8785,0.44804 -1.49862,0.44804 -0.57418,0 -1.23432,-0.19505 -1.98076,-0.5855 -0.73495,-0.40193 -1.37838,-0.92478 -1.9296,-1.56786 l -2.89388,3.15226 c 1.63068,2.13596 3.81275,3.20394 6.54586,3.20394 2.05557,0 3.69199,-0.55678 4.90926,-1.6707 1.22875,-1.11391 1.8433,-2.50361 1.8433,-4.16874 0,-1.25172 -0.33894,-2.34249 -1.01648,-3.27266 -0.67753,-0.93018 -1.92334,-1.84313 -3.73776,-2.73886 l -1.72289,-0.86144 c -0.74644,-0.36748 -1.21709,-0.65423 -1.41231,-0.86093 -0.18374,-0.21819 -0.27544,-0.45378 -0.27544,-0.70642 0,-0.33302 0.14894,-0.60863 0.44752,-0.82682 0.29857,-0.22967 0.71198,-0.34468 1.24023,-0.34468 0.96463,0 2.03869,0.58566 3.22151,1.757 l 2.91093,-2.91094 c -0.74643,-0.99908 -1.65938,-1.76257 -2.73885,-2.29081 -1.06798,-0.53974 -2.21043,-0.80977 -3.42769,-0.80977 z m -79.66801,0.48214 6.42493,8.87129 -7.09672,9.8702 h 5.3914 l 4.41007,-6.1495 4.46122,6.1495 h 5.46065 l -7.20059,-9.8702 6.40788,-8.87129 h -5.40846 l -3.7207,5.11596 -3.66903,-5.11596 z m 53.17505,0 v 7.80314 c 0,2.99723 0.18391,5.06429 0.55139,6.20117 0.51676,1.64216 1.4064,2.92293 2.6696,3.84163 1.27469,0.91869 2.93999,1.37769 4.99556,1.37769 1.89481,0 3.45675,-0.3901 4.6855,-1.17099 1.22876,-0.79237 2.15893,-1.92368 2.79053,-3.39359 0.51677,-1.20578 0.77515,-3.44509 0.77515,-6.71794 v -7.94111 h -4.72013 v 9.18135 c 0,1.76848 -0.0973,2.92259 -0.29249,3.46232 -0.26412,0.72347 -0.67196,1.27469 -1.22318,1.65365 -0.53973,0.36747 -1.19987,0.55138 -1.98075,0.55138 -0.78089,0 -1.44155,-0.18948 -1.98128,-0.56844 -0.52825,-0.37896 -0.91278,-0.90738 -1.15393,-1.58491 -0.24116,-0.68902 -0.36174,-1.91203 -0.36174,-3.66903 v -9.02632 z m -22.11751,3.85868 c 1.46991,0 2.68734,0.51676 3.65197,1.55029 0.96463,1.02205 1.44694,2.33675 1.44694,3.94446 0,1.6192 -0.49397,2.95164 -1.48156,3.99666 -0.97611,1.04501 -2.1819,1.56734 -3.61735,1.56734 -1.48139,0 -2.70997,-0.51119 -3.68608,-1.53324 -0.97611,-1.03353 -1.46451,-2.38268 -1.46451,-4.04781 0,-1.63068 0.4884,-2.95147 1.46451,-3.96203 0.97611,-1.01057 2.20469,-1.51567 3.68608,-1.51567 z" /><text
         xml:space="preserve"
         style="font-size:14.1111px;writing-mode:lr-tb;direction:ltr;fill:#00d4aa;fill-opacity:1;stroke-width:0.264583"
         x="116.03104"
         y="-127.94791"
         id="text1-8-9-1-9-0-1"><tspan
           id="tspan1-2-54-3-3-2-3"
           style="font-style:normal;font-variant:normal;font-weight:bold;font-stretch:normal;font-size:14.1111px;font-family:'Century Gothic';-inkscape-font-specification:'Century Gothic';fill:#00d4aa;fill-opacity:1;stroke-width:0.264583"
           x="116.03104"
           y="-127.94791">bstrak</tspan></text><text
         xml:space="preserve"
         style="font-size:35.2778px;writing-mode:lr-tb;direction:ltr;fill:#b3b3b3;stroke-width:0.661458"
         x="42.24987"
         y="-99.270912"
         id="text1-8-7-3-1-4-8"><tspan
           id="tspan1-2-1-1-9-8-9"
           style="font-style:normal;font-variant:normal;font-weight:bold;font-stretch:normal;font-size:35.2778px;font-family:'Century Gothic';-inkscape-font-specification:'Century Gothic';fill:#b3b3b3;stroke-width:0.661458"
           x="42.24987"
           y="-99.270912">m</tspan></text><path
         style="fill:#00d4aa;fill-opacity:1;fill-rule:nonzero;stroke:none;stroke-width:0.346059;stroke-linecap:round;stroke-linejoin:round;stroke-miterlimit:4;stroke-dasharray:none;stroke-opacity:1"
         d="m 90.812518,-138.33437 a 1.5702607,1.5702607 0 0 0 -0.13215,0.006 5.7576224,5.7576224 0 0 0 -5.4272,4.26174 h -0.006 v 0 l -7.54727,28.16762 v 0 a 5.757623,5.757623 0 0 0 -0.19785,1.4906 5.757623,5.757623 0 0 0 5.75768,5.7576 5.757623,5.757623 0 0 0 5.55902,-4.2681 h 0.006 l 8.12832,-30.33515 h 0.006 a 2.6171014,2.6171014 0 0 1 2.52487,-1.94075 2.6171014,2.6171014 0 0 1 2.526962,1.94018 v 0 l 7.54743,28.16754 h -0.006 a 2.6171014,2.6171014 0 0 1 0.0923,0.67655 2.6171014,2.6171014 0 0 1 -2.61712,2.61715 2.6171014,2.6171014 0 0 1 -2.52489,-1.94056 h -0.006 l -1.32539,-4.94657 -3.796672,-14.16893 v 0 a 1.5702607,1.5702607 0 0 0 -1.51603,-1.16423 1.5702607,1.5702607 0 0 0 -1.57028,1.57031 1.5702607,1.5702607 0 0 0 0.054,0.4062 v 0 l 5.122132,19.11529 h 0.006 a 5.757623,5.757623 0 0 0 5.55931,4.26808 5.757623,5.757623 0 0 0 5.75757,-5.75755 5.757623,5.757623 0 0 0 -0.19723,-1.48994 v 0 l -7.5473,-28.16768 v 0 h -0.006 a 5.7576224,5.7576224 0 0 0 -5.554722,-4.26934 v 0 a 5.7576224,5.7576224 0 0 0 -5.5593,4.26831 h -0.006 l -6.80279,25.38852 -1.32532,4.94654 h -0.006 a 2.6171014,2.6171014 0 0 1 -2.52488,1.94058 2.6171014,2.6171014 0 0 1 -2.6171,-2.61713 2.6171014,2.6171014 0 0 1 0.0921,-0.67654 h -0.006 l 1.32653,-4.95082 6.22098,-23.21679 h 0.006 a 2.6171014,2.6171014 0 0 1 2.52486,-1.94074 1.5702607,1.5702607 0 0 0 1.57028,-1.57028 1.5702607,1.5702607 0 0 0 -1.57028,-1.57027 z"
         id="path431-2-1-6-6-2-2-0-3-1-1-7-8-2-9-4-0-8-2-2-9-0-6-2-7-26-1-5-2-3-2-3-2-8-6-3" /></g></g></svg>
